<svg xmlns="http://www.w3.org/2000/svg" version="1.1" xmlns:xlink="http://www.w3.org/1999/xlink" xmlns:svgjs="http://svgjs.dev/svgjs" width="1500" height="1500" viewBox="0 0 1500 1500"><rect width="1500" height="1500" fill="#ffffff"></rect><g transform="matrix(0.6666666666666666,0,0,0.6666666666666666,249.39393939393943,699.7938285146743)"><svg viewBox="0 0 396 40" data-background-color="#ffffff" preserveAspectRatio="xMidYMid meet" height="151" width="1500" xmlns="http://www.w3.org/2000/svg" xmlns:xlink="http://www.w3.org/1999/xlink"><g id="tight-bounds" transform="matrix(1,0,0,1,0.2400000000000091,-0.050527886625587826)"><svg viewBox="0 0 395.52 40.1010557732512" height="40.1010557732512" width="395.52"><g><svg viewBox="0 0 435.86587953150206 44.19165135707411" height="40.1010557732512" width="395.52"><g transform="matrix(1,0,0,1,40.3458795315021,6.107529239653513)"><svg viewBox="0 0 395.52 31.976592877767082" height="31.976592877767082" width="395.52"><g id="textblocktransform"><svg viewBox="0 0 395.52 31.976592877767082" height="31.976592877767082" width="395.52" id="textblock"><g><svg viewBox="0 0 395.52 31.976592877767082" height="31.976592877767082" width="395.52"><g transform="matrix(1,0,0,1,0,0)"><svg width="395.52" viewBox="5.4 -40.5 503.73 41.01" height="31.976592877767082" data-palette-color="#556970"><g class="wordmark-text-0" data-fill-palette-color="primary" id="text-0"><path d="M5.4 0L5.4-38.16 13.13-38.16 13.13-28.2 36.87-28.2 36.87-38.16 44.63-38.16 44.63 0 36.87 0 36.87-21.58 13.13-21.58 13.13 0 5.4 0ZM64.23 0L50.58-28.83 58.96-28.83 66.45-11.5 68.65-6.64 71.34-12.94 64.21-28.83 71.24-28.83 74.73-20.29 78.22-28.83 85.25-28.83 78.1-12.94 80.81-6.64 83.01-11.5 90.5-28.83 98.87-28.83 85.23 0 77.37 0 74.73-5.57 72.09 0 64.23 0ZM102.56-14.5L102.56-14.5Q102.56-17.43 103.75-20.1 104.95-22.78 107.2-24.83 109.44-26.88 112.7-28.1 115.96-29.32 120.11-29.32L120.11-29.32Q124.24-29.32 127.55-28.09 130.85-26.86 133.16-24.71 135.47-22.56 136.7-19.65 137.93-16.75 137.93-13.43L137.93-13.43Q137.93-13.01 137.92-12.54 137.91-12.06 137.86-11.67L137.86-11.67 110.62-11.67Q111.08-10.38 112.12-9.3 113.15-8.23 114.72-7.45 116.28-6.67 118.33-6.24 120.38-5.81 122.87-5.81L122.87-5.81Q125.36-5.81 127.83-6.34 130.29-6.86 132.54-7.67L132.54-7.67 134.98-2.15Q133.56-1.49 132.11-0.99 130.66-0.49 129.08-0.16 127.51 0.17 125.79 0.34 124.07 0.51 122.16 0.51L122.16 0.51Q117.3 0.51 113.64-0.66 109.98-1.83 107.51-3.86 105.05-5.88 103.8-8.62 102.56-11.35 102.56-14.5ZM110.62-17.31L130.27-17.31Q129.88-18.51 129.06-19.54 128.24-20.58 127.02-21.35 125.8-22.12 124.19-22.56 122.58-23 120.65-23L120.65-23Q118.6-23 116.91-22.53 115.23-22.07 113.96-21.29 112.69-20.51 111.85-19.48 111.01-18.46 110.62-17.31L110.62-17.31ZM144.33-9.08L144.33-9.08Q144.33-11.16 145.23-12.87 146.14-14.58 147.94-15.81 149.75-17.04 152.45-17.71 155.14-18.38 158.73-18.38L158.73-18.38Q161.39-18.38 164.34-17.99 167.28-17.6 170.4-16.8L170.4-16.8Q170.28-18.16 169.57-19.32 168.86-20.48 167.61-21.33 166.35-22.17 164.58-22.63 162.81-23.1 160.56-23.1L160.56-23.1Q159.34-23.1 157.88-22.95 156.41-22.8 154.85-22.51 153.29-22.22 151.76-21.78 150.24-21.34 148.92-20.73L148.92-20.73 146.72-26.66Q148.36-27.25 150.22-27.73 152.09-28.22 154.05-28.58 156-28.93 157.95-29.13 159.9-29.32 161.74-29.32L161.74-29.32Q169.82-29.32 173.75-25.2 177.68-21.07 177.68-12.55L177.68-12.55 177.68 0 170.45 0 170.45-2.71Q169.33-2.05 168-1.46 166.67-0.88 165.1-0.44 163.54 0 161.75 0.26 159.95 0.51 157.95 0.51L157.95 0.51Q154.58 0.51 152.03-0.22 149.48-0.95 147.77-2.25 146.06-3.54 145.2-5.29 144.33-7.03 144.33-9.08ZM151.95-9.33L151.95-9.33Q151.95-8.62 152.31-7.97 152.68-7.32 153.48-6.82 154.29-6.32 155.55-6.02 156.8-5.71 158.59-5.71L158.59-5.71Q160.49-5.71 162.27-6.05 164.06-6.4 165.59-6.96 167.13-7.52 168.38-8.25 169.62-8.98 170.45-9.77L170.45-9.77 170.45-11.04Q168.79-11.5 167.17-11.82 165.54-12.13 164.07-12.32 162.59-12.5 161.28-12.57 159.98-12.65 159-12.65L159-12.65Q156.97-12.65 155.63-12.38 154.29-12.11 153.46-11.66 152.63-11.21 152.29-10.6 151.95-9.99 151.95-9.33ZM187.42 0L187.42-40.5 194.64-40.5 194.64 0 187.42 0ZM208.24 0L208.24-23.39 201.28-23.39 201.28-28.81 208.24-28.81 208.24-37.77 215.47-37.77 215.47-28.81 222.42-28.81 222.42-23.39 215.47-23.39 215.47 0 208.24 0ZM228.84 0L228.84-40.48 236.07-40.48 236.07-26.61Q238.34-27.86 241.13-28.59 243.93-29.32 247.01-29.32L247.01-29.32Q250.57-29.32 253.42-28.27 256.26-27.22 258.24-25.26 260.21-23.29 261.28-20.48 262.34-17.68 262.34-14.16L262.34-14.16 262.34 0 255.14 0 255.14-13.87Q255.14-15.92 254.48-17.61 253.82-19.31 252.55-20.53 251.28-21.75 249.46-22.42 247.64-23.1 245.35-23.1L245.35-23.1Q242.59-23.1 240.22-22.22 237.85-21.34 236.07-20L236.07-20 236.07 0 228.84 0Z" fill="#000000" data-fill-palette-color="primary"></path><path d="M284.38 0L284.38-38.16 292.12-38.16 305.99-24.24 319.86-38.16 327.6-38.16 327.6 0 319.86 0 319.86-27.44 305.99-14.09 292.12-27.44 292.12 0 284.38 0ZM336.19-14.5L336.19-14.5Q336.19-17.43 337.38-20.1 338.58-22.78 340.83-24.83 343.07-26.88 346.33-28.1 349.59-29.32 353.74-29.32L353.74-29.32Q357.87-29.32 361.18-28.09 364.48-26.86 366.79-24.71 369.1-22.56 370.33-19.65 371.56-16.75 371.56-13.43L371.56-13.43Q371.56-13.01 371.55-12.54 371.54-12.06 371.49-11.67L371.49-11.67 344.24-11.67Q344.71-10.38 345.75-9.3 346.78-8.23 348.35-7.45 349.91-6.67 351.96-6.24 354.01-5.81 356.5-5.81L356.5-5.81Q358.99-5.81 361.46-6.34 363.92-6.86 366.17-7.67L366.17-7.67 368.61-2.15Q367.19-1.49 365.74-0.99 364.29-0.49 362.71-0.16 361.14 0.17 359.42 0.34 357.7 0.51 355.79 0.51L355.79 0.51Q350.93 0.51 347.27-0.66 343.61-1.83 341.14-3.86 338.68-5.88 337.43-8.62 336.19-11.35 336.19-14.5ZM344.24-17.31L363.9-17.31Q363.51-18.51 362.69-19.54 361.87-20.58 360.65-21.35 359.43-22.12 357.82-22.56 356.21-23 354.28-23L354.28-23Q352.23-23 350.54-22.53 348.86-22.07 347.59-21.29 346.32-20.51 345.48-19.48 344.63-18.46 344.24-17.31L344.24-17.31ZM377.1-14.28L377.1-14.28Q377.1-17.72 378.4-20.5 379.69-23.27 381.97-25.23 384.26-27.2 387.39-28.26 390.53-29.32 394.19-29.32L394.19-29.32Q395.76-29.32 397.28-29.13 398.81-28.93 400.21-28.59 401.61-28.25 402.85-27.77 404.08-27.29 405.03-26.73L405.03-26.73 405.03-40.5 412.26-40.5 412.26 0 405.03 0 405.03-2.71Q404.08-2.05 402.79-1.46 401.49-0.88 400-0.44 398.51 0 396.92 0.26 395.32 0.51 393.75 0.51L393.75 0.51Q390.09 0.51 387.03-0.56 383.96-1.64 381.77-3.59 379.57-5.54 378.34-8.26 377.1-10.99 377.1-14.28ZM384.7-14.28L384.7-14.28Q384.7-12.55 385.39-11.01 386.09-9.47 387.39-8.31 388.7-7.15 390.54-6.48 392.39-5.81 394.68-5.81L394.68-5.81Q396.15-5.81 397.61-6.09 399.08-6.37 400.43-6.88 401.79-7.4 402.97-8.13 404.15-8.86 405.03-9.77L405.03-9.77 405.03-19.75Q403.93-20.63 402.71-21.24 401.49-21.85 400.22-22.24 398.95-22.63 397.66-22.81 396.37-23 395.15-23L395.15-23Q392.65-23 390.71-22.33 388.77-21.66 387.44-20.48 386.11-19.31 385.4-17.72 384.7-16.14 384.7-14.28ZM424.9-32.74L424.9-32.74Q423.83-32.74 422.96-33.04 422.1-33.35 421.49-33.87 420.87-34.4 420.55-35.1 420.22-35.79 420.22-36.57L420.22-36.57Q420.22-37.38 420.55-38.07 420.87-38.77 421.49-39.28 422.1-39.79 422.96-40.1 423.83-40.41 424.9-40.41L424.9-40.41Q426-40.41 426.87-40.1 427.74-39.79 428.35-39.28 428.96-38.77 429.29-38.07 429.62-37.38 429.62-36.57L429.62-36.57Q429.62-35.79 429.29-35.1 428.96-34.4 428.35-33.87 427.74-33.35 426.87-33.04 426-32.74 424.9-32.74ZM421.29 0L421.29-28.81 428.52-28.81 428.52 0 421.29 0ZM436.03-14.33L436.03-14.33Q436.03-17.5 437.19-20.25 438.35-23 440.59-25.01 442.82-27.03 446.06-28.17 449.29-29.32 453.44-29.32L453.44-29.32Q455.25-29.32 457.08-29.1 458.91-28.88 460.61-28.48 462.3-28.08 463.79-27.53 465.28-26.98 466.38-26.32L466.38-26.32 463.04-20.87Q460.67-21.97 458.56-22.49 456.44-23 454.27-23L454.27-23Q451.78-23 449.8-22.35 447.83-21.7 446.45-20.54 445.07-19.38 444.35-17.81 443.63-16.24 443.63-14.38L443.63-14.38Q443.63-12.52 444.4-10.95 445.16-9.38 446.57-8.24 447.97-7.1 449.96-6.46 451.95-5.81 454.39-5.81L454.39-5.81Q457.08-5.81 459.46-6.57 461.84-7.32 463.89-8.59L463.89-8.59 467.23-3.15Q465.94-2.37 464.43-1.7 462.91-1.03 461.19-0.54 459.47-0.05 457.58 0.23 455.69 0.51 453.66 0.51L453.66 0.51Q449.53 0.51 446.26-0.61 442.99-1.73 440.72-3.72 438.45-5.71 437.24-8.42 436.03-11.13 436.03-14.33ZM473.29-14.4L473.29-14.4Q473.29-17.5 474.54-20.21 475.8-22.92 478.13-24.95 480.46-26.98 483.77-28.15 487.08-29.32 491.21-29.32L491.21-29.32Q495.33-29.32 498.64-28.15 501.95-26.98 504.28-24.95 506.61-22.92 507.87-20.21 509.13-17.5 509.13-14.4L509.13-14.4Q509.13-11.3 507.87-8.59 506.61-5.88 504.28-3.86 501.95-1.83 498.64-0.66 495.33 0.51 491.21 0.51L491.21 0.51Q487.08 0.51 483.77-0.66 480.46-1.83 478.13-3.86 475.8-5.88 474.54-8.59 473.29-11.3 473.29-14.4ZM480.88-14.4L480.88-14.4Q480.88-12.67 481.58-11.12 482.27-9.57 483.6-8.39 484.93-7.2 486.85-6.51 488.77-5.81 491.21-5.81L491.21-5.81Q493.65-5.81 495.56-6.51 497.48-7.2 498.81-8.39 500.14-9.57 500.84-11.12 501.53-12.67 501.53-14.4L501.53-14.4Q501.53-16.14 500.84-17.7 500.14-19.26 498.81-20.45 497.48-21.63 495.56-22.33 493.65-23.02 491.21-23.02L491.21-23.02Q488.77-23.02 486.85-22.33 484.93-21.63 483.6-20.45 482.27-19.26 481.58-17.7 480.88-16.14 480.88-14.4Z" fill="#000000" data-fill-palette-color="accent"></path></g></svg></g></svg></g></svg></g></svg></g><g><svg viewBox="0 0 32.79697339129036 44.19165135707411" height="44.19165135707411" width="32.79697339129036"><g><svg xmlns="http://www.w3.org/2000/svg" xmlns:xlink="http://www.w3.org/1999/xlink" version="1.1" x="0" y="0" viewBox="20.934 11 59.06500083530827 79.586" enable-background="new 0 0 100 100" xml:space="preserve" height="44.19165135707411" width="32.79697339129036" class="icon-icon-0" data-fill-palette-color="accent" id="icon-0"><g fill="#1cc5d4" data-fill-palette-color="accent"><path d="M77.997 11H29.12c-1.106 0-2.003 0.897-2.003 2.003v13.702H24.94c0-1.107-0.897-2.003-2.003-2.003-1.106 0-2.003 0.897-2.003 2.003v7.058c0 1.107 0.897 2.003 2.003 2.003 1.106 0 2.003-0.897 2.003-2.003v0h2.177v33.345H24.94c0-1.107-0.897-2.003-2.003-2.003-1.106 0-2.003 0.897-2.003 2.003v7.058c0 1.107 0.897 2.003 2.003 2.003 1.106 0 2.003-0.897 2.003-2.003v0h2.177v14.417c0 1.107 0.897 2.003 2.003 2.003h48.876c1.106 0 2.003-0.897 2.003-2.003v-22.93V51.502 13.003C80 11.897 79.103 11 77.997 11zM31.124 86.58V74.166h2.364v-7.058h-2.364V33.763h2.364v-7.058h-2.364V15.007h44.869v34.492h-1.765c-2.977 0-5.397 2.422-5.397 5.398v7.362c0 2.976 2.421 5.397 5.397 5.397h1.765V86.58H31.124zM75.993 63.65h-1.765c-0.767 0-1.39-0.623-1.39-1.39v-7.362c0-0.767 0.623-1.391 1.39-1.391h1.765V63.65z" fill="#000000" data-fill-palette-color="accent"></path><polygon points="56.041,31.867 51.075,31.867 51.075,36.95 45.993,36.95 45.993,41.915 51.075,41.915 51.075,46.998 56.041,46.998    56.041,41.915 61.124,41.915 61.124,36.95 56.041,36.95  " fill="#000000" data-fill-palette-color="accent"></polygon></g></svg></g></svg></g></svg></g><defs></defs></svg><rect width="395.52" height="40.1010557732512" fill="none" stroke="none" visibility="hidden"></rect></g></svg></g></svg>